<svg xmlns="http://www.w3.org/2000/svg" width="187.787" height="44" viewBox="0 0 187.787 44">
  <g data-name="Group 922" transform="translate(-245 -70)">
    <path data-name="Path 2" d="M22.216,10.434a1.014,1.014,0,0,0,.713.358c.324,0,.584-.228.584-.781V-4.1a54.041,54.041,0,0,1,.227-6.18c.227-1.659.227-2.017,2.367-2.342a.66.66,0,0,0,.519-.683c0-.26-.13-.52-.421-.52H18.423c-.292,0-.421.26-.421.52a.66.66,0,0,0,.519.683c2.269.325,2.431.716,2.561,2.342.065.781.195,2.439.195,6.245V3.929L6.526-13.83H2.052c-.292,0-.454.13-.454.358a.985.985,0,0,0,.292.585l2.172,2.342c.065.781.162,2.7.162,6.505V.709c0,3.838-.1,5.237-.162,6.017C3.932,8.353,3.608,8.776,1.339,9.1a.627.627,0,0,0-.519.651c0,.26.13.52.421.52H9.508c.292,0,.421-.26.421-.52A.627.627,0,0,0,9.411,9.1c-2.14-.325-2.691-.943-2.918-2.6-.1-.781-.1-2.212-.162-5.985l-.162-9.27ZM36.675-5.016c1.589,0,2.885.911,2.885,3.415,0,.52-.421.976-1.329,1.041L32.2-.2C32.558-2.934,34.341-5.016,36.675-5.016ZM43,6.011c0-.325-.1-.553-.421-.553-.746,0-1.3,2.472-5.219,2.472-2.853,0-5.284-1.691-5.284-6.6l8.915-.26c.94-.033,1.815-.52,1.815-1.529,0-4.846-3.274-6.213-5.576-6.213-5.057,0-8.267,4.131-8.267,9.335,0,5.4,3.631,7.937,7.651,7.937C39.982,10.6,43,8.255,43,6.011Zm1.978-12.36a.571.571,0,0,0-.616.585.694.694,0,0,0,.519.683c1.751.39,1.978,1.138,3.761,6.766l2.594,8.164c.162.488.421.748.778.748.324,0,.616-.26.81-.748L56.9-.4,61.119,9.849c.195.52.519.748.81.748.324,0,.616-.26.778-.748l4.214-12.1c.681-2.017,1.264-2.6,2.723-2.927a.654.654,0,0,0,.486-.618.548.548,0,0,0-.616-.553H62.772a.526.526,0,0,0-.551.553.6.6,0,0,0,.551.618c1.329.163,2.172.716,2.172,1.529a2.318,2.318,0,0,1-.1.683L62.48,5.425,58.3-5.146a.848.848,0,0,0-.778-.618.805.805,0,0,0-.843.618l-3.793,10.9L50.323-3.584a1.638,1.638,0,0,1-.065-.39c0-.716.713-1.073,1.978-1.2a.6.6,0,0,0,.519-.618.537.537,0,0,0-.584-.553Zm32.484-.325c-2.529,0-5.641,1.106-5.641,4.261,0,2.7,2.01,4.033,4.214,5.3,3.145,1.821,4.117,2.57,4.117,4,0,1.594-1.459,2.082-3.4,2.082-2.918,0-2.918-2.017-2.918-3.253A2.212,2.212,0,0,0,71.007,7.8c0,1.919,2.042,2.8,5.544,2.8,2.983,0,6.516-1.106,6.516-4.456,0-2.895-2.01-4.163-5.09-5.985-2.431-1.431-3.307-2.049-3.307-3.35,0-1.171.973-1.919,2.464-1.919,2.075,0,2.561,1.529,2.658,2.927,1.653,0,2.594-.553,2.594-1.854C82.386-6.219,79.306-6.675,77.458-6.675ZM91.43-1.5a4.452,4.452,0,0,1,4.052-2.83c3.274,0,4.279,3.35,4.279,6.31,0,4.131-2.042,6.993-5.187,6.993A2.925,2.925,0,0,1,91.43,5.978Zm0,11.189a4.4,4.4,0,0,0,2.918.911c5.09,0,8.948-3.513,8.948-9.693,0-4.684-2.885-7.579-6.646-7.579A6.318,6.318,0,0,0,91.3-3.552c0-1.724-.1-2.8-.843-2.8a33.349,33.349,0,0,0-5.122.781.65.65,0,0,0-.454.651.544.544,0,0,0,.584.585h.551c2.3,0,2.464,1.919,2.464,8.685V10.6c0,1.854-.1,3.318-.162,4.1-.13,1.626-.454,1.984-2.723,2.342a.627.627,0,0,0-.519.651c0,.26.13.52.421.52h8.721c.292,0,.421-.26.421-.52a.627.627,0,0,0-.519-.651c-2.14-.358-2.237-.683-2.464-2.342a34.566,34.566,0,0,1-.227-4.1ZM113.877-1.828c0-2.342-.421-4.521-1.459-4.521a27.768,27.768,0,0,0-4.6.781.65.65,0,0,0-.454.651.553.553,0,0,0,.616.585h.519c2.3,0,2.464,1.594,2.464,5.074V2.661c0,1.854-.1,3.318-.162,4.1-.13,1.626-.454,2.017-2.723,2.342a.627.627,0,0,0-.519.651.476.476,0,0,0,.519.52h9.369a.486.486,0,0,0,.551-.52.627.627,0,0,0-.519-.651c-2.14-.325-3.274-.683-3.5-2.342a36.8,36.8,0,0,1-.162-4.879c0-3.058,2.107-5.269,3.534-5.269a1.589,1.589,0,0,1,1.524,1.106A2.127,2.127,0,0,0,120.944-4.3a2.241,2.241,0,0,0-2.464-2.374C116.989-6.675,115.335-5.731,113.877-1.828ZM134.819,9.394c.908,1.073,2.042,1.594,4.279,1.594.875,0,1.88-.163,1.88-.52,0-.163-.1-.228-.259-.293-1.751-.781-2.334-1.756-4.02-3.61L131.512.807l4.636-4.456a5.834,5.834,0,0,1,3.372-1.529.654.654,0,0,0,.486-.618.548.548,0,0,0-.616-.553H131.8a.552.552,0,0,0-.551.585.626.626,0,0,0,.713.618c1.2,0,1.88.358,1.88.813a1.224,1.224,0,0,1-.454.878l-5.025,5.237Zm-7.1-17.987c0-3.48.13-5.464.13-6.44s-.454-1.366-1.07-1.366a39.252,39.252,0,0,0-5.219,1.138.614.614,0,0,0-.454.618.493.493,0,0,0,.519.52h1.459c1.621,0,1.621,2.049,1.621,5.53V2.661c0,1.854-.1,3.318-.162,4.1-.13,1.626-.454,1.984-2.723,2.342a.627.627,0,0,0-.519.651c0,.26.13.52.421.52h8.721c.292,0,.421-.26.421-.52a.627.627,0,0,0-.519-.651c-2.14-.358-2.237-.683-2.464-2.342a38.663,38.663,0,0,1-.162-4.1Z" transform="translate(291.808 95.792)" fill="#17222b"/>
    <g transform="translate(245 70)">
      <g data-name="Group 1" transform="translate(0)">
        <path data-name="Path 1" d="M37.513,9.726H30.566V1.389A1.389,1.389,0,0,0,29.177,0H1.389A1.389,1.389,0,0,0,0,1.389V33.345A5.558,5.558,0,0,0,5.558,38.9H33.345A5.558,5.558,0,0,0,38.9,33.345V11.115A1.389,1.389,0,0,0,37.513,9.726Zm-26.4-2.779h8.336a1.389,1.389,0,0,1,0,2.779H11.115a1.389,1.389,0,1,1,0-2.779Zm12.5,26.4H6.947a1.389,1.389,0,1,1,0-2.779H23.619a1.389,1.389,0,1,1,0,2.779Zm0-5.558H6.947a1.389,1.389,0,1,1,0-2.779H23.619a1.389,1.389,0,1,1,0,2.779Zm0-5.557H6.947a1.389,1.389,0,0,1,0-2.779H23.619a1.389,1.389,0,0,1,0,2.779Zm0-5.558H6.947a1.389,1.389,0,1,1,0-2.779H23.619a1.389,1.389,0,1,1,0,2.779Zm12.5,16.672a2.779,2.779,0,1,1-5.557,0V12.5h5.558V33.345Z" transform="translate(0)" fill="#17222b"/>
      </g>
    </g>
  </g>
</svg>
